<svg width="298" height="298" viewBox="0 0 298 298" fill="none" xmlns="http://www.w3.org/2000/svg">
<rect width="298" height="298" fill="#191C21"/>
<path d="M43.632 104.784C53.36 104.784 61.7653 106.619 68.848 110.288C76.016 113.872 81.4773 119.035 85.232 125.776C89.072 132.517 90.992 140.453 90.992 149.584C90.992 158.715 89.072 166.651 85.232 173.392C81.4773 180.048 76.016 185.168 68.848 188.752C61.7653 192.251 53.36 194 43.632 194H15.856V104.784H43.632ZM43.632 184.4C55.152 184.4 63.9413 181.371 70 175.312C76.0587 169.168 79.088 160.592 79.088 149.584C79.088 138.491 76.016 129.829 69.872 123.6C63.8133 117.371 55.0667 114.256 43.632 114.256H27.504V184.4H43.632ZM102.004 158.672C102.004 151.504 103.455 145.232 106.356 139.856C109.257 134.395 113.225 130.171 118.26 127.184C123.38 124.197 129.055 122.704 135.284 122.704C141.428 122.704 146.761 124.027 151.284 126.672C155.807 129.317 159.177 132.645 161.396 136.656V123.856H173.172V194H161.396V180.944C159.092 185.04 155.636 188.453 151.028 191.184C146.505 193.829 141.215 195.152 135.156 195.152C128.927 195.152 123.295 193.616 118.26 190.544C113.225 187.472 109.257 183.163 106.356 177.616C103.455 172.069 102.004 165.755 102.004 158.672ZM161.396 158.8C161.396 153.509 160.329 148.901 158.196 144.976C156.063 141.051 153.161 138.064 149.492 136.016C145.908 133.883 141.94 132.816 137.588 132.816C133.236 132.816 129.268 133.84 125.684 135.888C122.1 137.936 119.241 140.923 117.108 144.848C114.975 148.773 113.908 153.381 113.908 158.672C113.908 164.048 114.975 168.741 117.108 172.752C119.241 176.677 122.1 179.707 125.684 181.84C129.268 183.888 133.236 184.912 137.588 184.912C141.94 184.912 145.908 183.888 149.492 181.84C153.161 179.707 156.063 176.677 158.196 172.752C160.329 168.741 161.396 164.091 161.396 158.8ZM227.032 122.576C235.565 122.576 242.477 125.179 247.768 130.384C253.059 135.504 255.704 142.928 255.704 152.656V194H244.184V154.32C244.184 147.323 242.435 141.989 238.936 138.32C235.437 134.565 230.659 132.688 224.6 132.688C218.456 132.688 213.549 134.608 209.88 138.448C206.296 142.288 204.504 147.877 204.504 155.216V194H192.856V123.856H204.504V133.84C206.808 130.256 209.923 127.483 213.848 125.52C217.859 123.557 222.253 122.576 227.032 122.576ZM278.443 194.768C276.224 194.768 274.347 194 272.811 192.464C271.275 190.928 270.507 189.051 270.507 186.832C270.507 184.613 271.275 182.736 272.811 181.2C274.347 179.664 276.224 178.896 278.443 178.896C280.576 178.896 282.368 179.664 283.819 181.2C285.355 182.736 286.123 184.613 286.123 186.832C286.123 189.051 285.355 190.928 283.819 192.464C282.368 194 280.576 194.768 278.443 194.768Z" fill="#FDFEFF"/>
</svg>
